# xmcd
#
# Track frame offsets: 
#        150
#        18158
#        38336
#        53115
#        74732
#        93119
#        113846
#        128169
#        146311
#        165052
#
# Disc length: 2442 seconds
#
# Revision: 1
# Processed by: cddbd v1.5.2PL0 Copyright (c) Steve Scherf et al.
# Submitted via: ExactAudioCopy v0.99pb5
#
DISCID=7109880a
DTITLE=Phonogenica - Bossa Nova, Baby!
DYEAR=2006
DGENRE=Latin
TTITLE0=Be My Baby
TTITLE1=Believe
TTITLE2=Fly Me To The Moon
TTITLE3=Baby, I Love Your Way
TTITLE4=Cry Me A River
TTITLE5=You On My Mind
TTITLE6=Triste
TTITLE7=Bring On The Night
TTITLE8=So Nice
TTITLE9=Over Joyed
EXTD=YEAR: 2006
EXTT0=
EXTT1=
EXTT2=
EXTT3=
EXTT4=
EXTT5=
EXTT6=
EXTT7=
EXTT8=
EXTT9=
PLAYORDER=
